<svg id="Layer_1" enable-background="new 0 0 512 512" height="512" viewBox="0 0 512 512" width="512"
  xmlns="http://www.w3.org/2000/svg">
  <g clip-rule="evenodd" fill-rule="evenodd">
    <circle cx="256" cy="256" fill="#457B9D" r="256" />
    <path
      d="m104.066 205.233h49.228v101.531h-49.228c-7.722 0-14.04-6.318-14.04-14.04v-73.452c0-7.721 6.318-14.039 14.04-14.039zm233.327 102.624c-6.664 6.664-17.469 6.664-24.133 0s-6.664-17.469 0-24.133l27.724-27.724-27.725-27.725c-6.664-6.664-6.664-17.469 0-24.133s17.469-6.664 24.133 0l27.725 27.725 27.724-27.725c6.664-6.664 17.469-6.664 24.133 0s6.664 17.469 0 24.133l-27.724 27.725 27.724 27.724c6.664 6.664 6.664 17.469 0 24.133s-17.469 6.664-24.133 0l-27.724-27.724zm-164.998 14.019 84.952 67.206c3.677 2.909 8.387 3.425 12.608 1.383 4.22-2.042 6.737-6.058 6.737-10.746v-247.441c0-4.688-2.517-8.703-6.737-10.746-4.221-2.042-8.931-1.526-12.608 1.383l-84.952 67.206z"
      fill="#fff" />
  </g>
</svg>