<svg id="Layer_1" enable-background="new 0 0 512 512" height="512" viewBox="0 0 512 512" width="512"
  xmlns="http://www.w3.org/2000/svg">
  <g clip-rule="evenodd" fill-rule="evenodd">
    <circle cx="256" cy="256" fill="#457B9D" r="256" />
    <g fill="#fff">
      <path
        d="m171.146 320.366 83.003 65.665c3.592 2.842 8.195 3.347 12.319 1.352 4.123-1.996 6.583-5.918 6.583-10.5v-241.766c0-4.581-2.46-8.504-6.583-10.5-4.124-1.995-8.726-1.491-12.319 1.352l-83.003 65.665z" />
      <path
        d="m351.665 177.843c11.994 9.211 21.714 21.123 28.402 34.684 6.678 13.544 10.048 28.379 10.048 43.473s-3.37 29.929-10.048 43.473c-6.688 13.561-16.408 25.473-28.402 34.684-6.326 4.859-7.526 13.933-2.668 20.264 4.856 6.328 13.935 7.528 20.262 2.668 15.507-11.911 28.163-27.238 36.814-44.782 8.654-17.548 13.126-36.741 13.126-56.307s-4.473-38.759-13.126-56.307c-8.651-17.544-21.307-32.871-36.814-44.782-6.327-4.86-15.407-3.66-20.262 2.668-4.858 6.33-3.658 15.405 2.668 20.264zm-42.776 46.012c-7.057-3.793-9.699-12.593-5.905-19.648 3.795-7.057 12.592-9.697 19.649-5.905 10.428 5.604 19.169 13.977 25.248 24.134 6.088 10.172 9.308 21.705 9.308 33.564s-3.22 23.393-9.308 33.565c-6.079 10.157-14.82 18.53-25.248 24.134-7.057 3.792-15.854 1.151-19.649-5.905-3.794-7.056-1.152-15.855 5.905-19.648 5.822-3.129 10.727-7.782 14.123-13.456 3.386-5.659 5.093-12.103 5.093-18.689 0-6.587-1.707-13.031-5.093-18.689-3.396-5.676-8.3-10.328-14.123-13.457z" />
      <path
        d="m104.384 206.399h48.098v99.202h-48.098c-7.545 0-13.718-6.173-13.718-13.718v-71.767c0-7.545 6.174-13.717 13.718-13.717z" />
    </g>
  </g>
</svg>